<svg version="1.1" id="Layer_1" xmlns="http://www.w3.org/2000/svg" xmlns:xlink="http://www.w3.org/1999/xlink" x="0px" y="0px"
	 width="100%" viewBox="0 0 1000 1125" enable-background="new 0 0 1000 1125" xml:space="preserve">
<path fill="#000000" opacity="1.000000" stroke="none" 
	d="
M1001.000000,648.000000 
	C1001.000000,807.299194 1001.000000,966.598389 1001.000000,1125.948730 
	C667.772217,1125.948730 334.544403,1125.948730 1.000000,1125.948730 
	C1.000000,966.973267 1.000000,807.946350 1.402419,648.244568 
	C2.202305,648.586914 2.882548,649.584534 2.954763,650.624329 
	C4.016266,665.908691 4.751990,681.219727 6.064207,696.481506 
	C7.425663,712.315918 8.880963,728.167175 11.110626,743.895508 
	C13.595295,761.422607 16.698891,778.877686 20.073627,796.259155 
	C24.961750,821.435303 36.383373,843.297913 55.366329,860.739197 
	C67.798241,872.161499 80.426346,883.432922 93.633919,893.932495 
	C109.782829,906.770386 126.084793,919.557861 143.292587,930.891235 
	C175.705322,952.238953 208.474747,973.094788 241.742020,993.079529 
	C268.074921,1008.898560 295.198730,1023.437500 322.309937,1037.910645 
	C338.533691,1046.571655 355.147308,1054.623779 372.053345,1061.856445 
	C397.240875,1072.631958 422.585449,1083.157959 448.368317,1092.377686 
	C462.463593,1097.418091 477.442047,1100.727173 492.303253,1102.697876 
	C510.377136,1105.094482 528.043579,1100.544922 545.376343,1095.289795 
	C582.437378,1084.053345 617.671509,1068.302612 652.511414,1051.671387 
	C670.138062,1043.257202 687.410461,1034.061401 704.567566,1024.713379 
	C725.941162,1013.068054 747.343750,1001.418884 768.162292,988.826538 
	C793.591187,973.445679 818.527893,957.240417 843.491577,941.104004 
	C870.068176,923.925049 895.535400,905.223022 919.776917,884.836243 
	C933.422974,873.360046 946.964050,861.810669 958.359741,848.035339 
	C962.274353,843.303162 965.969910,838.253601 968.916565,832.883301 
	C976.723816,818.654419 980.734802,803.051270 983.928589,787.280640 
	C986.575500,774.210632 988.947754,761.069153 990.897705,747.878906 
	C992.382080,737.838074 993.011963,727.670898 994.024353,717.560181 
	C995.347778,704.342407 996.875854,691.140869 997.927185,677.901550 
	C998.633545,669.005676 998.602966,660.052917 999.083496,651.135376 
	C999.141418,650.058960 1000.333557,649.043640 1001.000000,648.000000 
z"/>
<path fill="#000000" opacity="1.000000" stroke="none" 
	d="
M1.000002,479.000000 
	C1.000000,319.700806 1.000000,160.401642 1.000000,1.051227 
	C334.227722,1.051227 667.455505,1.051227 1001.000000,1.051227 
	C1001.000000,160.026718 1001.000000,319.053650 1000.608032,478.787201 
	C999.811829,478.476471 999.119141,477.479218 999.046753,476.438812 
	C997.983887,461.151886 997.248413,445.838135 995.936035,430.573700 
	C994.574951,414.743042 993.119507,398.895630 990.890442,383.171082 
	C988.402954,365.624237 985.301270,348.148560 981.920471,330.748077 
	C977.100891,305.942474 966.075134,284.231049 947.356689,266.985657 
	C934.787781,255.405869 921.979858,244.029755 908.653442,233.342270 
	C892.629272,220.491119 876.561951,207.520248 859.410217,196.285217 
	C825.199158,173.875717 790.509460,152.160843 755.486267,131.039856 
	C731.871460,116.798752 707.547791,103.686844 683.163330,90.783882 
	C665.193115,81.274971 646.900879,72.249237 628.231812,64.217529 
	C603.734314,53.678345 578.978577,43.610073 553.838074,34.745461 
	C539.566040,29.713095 524.460449,26.330700 509.446930,24.297604 
	C491.163910,21.821758 473.145782,26.099577 455.910217,32.107330 
	C434.029999,39.734047 412.156128,47.581955 390.928558,56.825134 
	C365.911133,67.718544 341.251282,79.560410 317.052155,92.172539 
	C288.667023,106.966347 260.781708,122.747086 232.994873,138.650589 
	C216.081009,148.331055 199.393463,158.506287 183.257874,169.425140 
	C155.379639,188.290131 127.857193,207.693710 100.506180,227.318314 
	C90.311020,234.633438 80.717064,242.871964 71.395454,251.294266 
	C62.594433,259.246185 54.146194,267.665894 46.238747,276.502594 
	C40.860466,282.512939 36.003330,289.222687 32.112064,296.280670 
	C24.687664,309.747070 21.109642,324.672821 18.075502,339.631897 
	C15.425332,352.697876 13.044612,365.835114 11.105361,379.023285 
	C9.603756,389.235168 8.957328,399.573334 7.950152,409.857300 
	C6.623520,423.403137 5.138776,436.936768 4.064445,450.502808 
	C3.385727,459.073273 3.390032,467.696503 2.915190,476.286499 
	C2.863399,477.223419 1.666024,478.097015 1.000002,479.000000 
z"/>
<path fill="#EA9937" opacity="1.000000" stroke="none" 
	d="
M1.000002,479.468658 
	C1.666024,478.097015 2.863399,477.223419 2.915190,476.286499 
	C3.390032,467.696503 3.385727,459.073273 4.064445,450.502808 
	C5.138776,436.936768 6.623520,423.403137 7.950152,409.857300 
	C8.957328,399.573334 9.603756,389.235168 11.105361,379.023285 
	C13.044612,365.835114 15.425332,352.697876 18.075502,339.631897 
	C21.109642,324.672821 24.687664,309.747070 32.112064,296.280670 
	C36.003330,289.222687 40.860466,282.512939 46.238747,276.502594 
	C54.146194,267.665894 62.594433,259.246185 71.395454,251.294266 
	C80.717064,242.871964 90.311020,234.633438 100.506180,227.318314 
	C127.857193,207.693710 155.379639,188.290131 183.257874,169.425140 
	C199.393463,158.506287 216.081009,148.331055 232.994873,138.650589 
	C260.781708,122.747086 288.667023,106.966347 317.052155,92.172539 
	C341.251282,79.560410 365.911133,67.718544 390.928558,56.825134 
	C412.156128,47.581955 434.029999,39.734047 455.910217,32.107330 
	C473.145782,26.099577 491.163910,21.821758 509.446930,24.297604 
	C524.460449,26.330700 539.566040,29.713095 553.838074,34.745461 
	C578.978577,43.610073 603.734314,53.678345 628.231812,64.217529 
	C646.900879,72.249237 665.193115,81.274971 683.163330,90.783882 
	C707.547791,103.686844 731.871460,116.798752 755.486267,131.039856 
	C790.509460,152.160843 825.199158,173.875717 859.410217,196.285217 
	C876.561951,207.520248 892.629272,220.491119 908.653442,233.342270 
	C921.979858,244.029755 934.787781,255.405869 947.356689,266.985657 
	C966.075134,284.231049 977.100891,305.942474 981.920471,330.748077 
	C985.301270,348.148560 988.402954,365.624237 990.890442,383.171082 
	C993.119507,398.895630 994.574951,414.743042 995.936035,430.573700 
	C997.248413,445.838135 997.983887,461.151886 999.046753,476.438812 
	C999.119141,477.479218 999.811829,478.476471 1000.608032,479.246887 
	C1001.000000,535.020874 1001.000000,591.041809 1001.000000,647.531372 
	C1000.333557,649.043640 999.141418,650.058960 999.083496,651.135376 
	C998.602966,660.052917 998.633545,669.005676 997.927185,677.901550 
	C996.875854,691.140869 995.347778,704.342407 994.024353,717.560181 
	C993.011963,727.670898 992.382080,737.838074 990.897705,747.878906 
	C988.947754,761.069153 986.575500,774.210632 983.928589,787.280640 
	C980.734802,803.051270 976.723816,818.654419 968.916565,832.883301 
	C965.969910,838.253601 962.274353,843.303162 958.359741,848.035339 
	C946.964050,861.810669 933.422974,873.360046 919.776917,884.836243 
	C895.535400,905.223022 870.068176,923.925049 843.491577,941.104004 
	C818.527893,957.240417 793.591187,973.445679 768.162292,988.826538 
	C747.343750,1001.418884 725.941162,1013.068054 704.567566,1024.713379 
	C687.410461,1034.061401 670.138062,1043.257202 652.511414,1051.671387 
	C617.671509,1068.302612 582.437378,1084.053345 545.376343,1095.289795 
	C528.043579,1100.544922 510.377136,1105.094482 492.303253,1102.697876 
	C477.442047,1100.727173 462.463593,1097.418091 448.368317,1092.377686 
	C422.585449,1083.157959 397.240875,1072.631958 372.053345,1061.856445 
	C355.147308,1054.623779 338.533691,1046.571655 322.309937,1037.910645 
	C295.198730,1023.437500 268.074921,1008.898560 241.742020,993.079529 
	C208.474747,973.094788 175.705322,952.238953 143.292587,930.891235 
	C126.084793,919.557861 109.782829,906.770386 93.633919,893.932495 
	C80.426346,883.432922 67.798241,872.161499 55.366329,860.739197 
	C36.383373,843.297913 24.961750,821.435303 20.073627,796.259155 
	C16.698891,778.877686 13.595295,761.422607 11.110626,743.895508 
	C8.880963,728.167175 7.425663,712.315918 6.064207,696.481506 
	C4.751990,681.219727 4.016266,665.908691 2.954763,650.624329 
	C2.882548,649.584534 2.202305,648.586914 1.402419,647.784851 
	C1.000000,591.979126 1.000000,535.958191 1.000002,479.468658 
M780.028992,183.510269 
	C767.879395,176.336304 755.850281,168.948181 743.555786,162.031769 
	C715.816345,146.426682 688.242798,130.485458 660.033875,115.769386 
	C637.718079,104.127579 614.640076,93.924629 591.746338,83.418846 
	C570.520142,73.678246 548.605103,65.733795 526.073975,59.501667 
	C514.843994,56.395432 503.324615,54.595749 491.898651,56.284847 
	C475.513031,58.707119 459.611816,63.421307 444.303070,69.969162 
	C419.564331,80.550392 394.516968,90.449776 370.073639,101.669212 
	C351.147125,110.356415 332.744843,120.256844 314.471436,130.277893 
	C291.564911,142.839737 268.843506,155.765167 246.384445,169.109665 
	C224.361038,182.195328 202.394882,195.445465 181.088577,209.650803 
	C159.596832,223.979767 138.865479,239.459229 117.954231,254.645645 
	C101.475052,266.613373 86.361794,280.094604 72.315010,294.934479 
	C61.692074,306.157227 55.124649,319.284271 52.226238,333.872314 
	C47.407688,358.124603 43.516125,382.591675 40.179096,407.097015 
	C37.941555,423.528320 37.153328,440.169891 36.057083,456.739868 
	C35.119862,470.906250 34.476307,485.098907 34.048717,499.290405 
	C33.514030,517.036255 33.059582,534.792847 33.072598,552.544495 
	C33.087086,572.305725 33.625191,592.067261 34.013885,611.827148 
	C34.271458,624.921387 34.611351,638.014648 35.024700,651.104858 
	C35.227741,657.534912 35.517296,663.970886 36.055004,670.380005 
	C37.275318,684.925354 38.655643,699.457397 40.005436,713.991699 
	C40.991371,724.608032 41.544037,735.294800 43.169151,745.814270 
	C45.327347,759.784485 48.615929,773.577087 50.922844,787.527954 
	C54.331928,808.144348 64.283485,825.142883 79.078850,839.418945 
	C86.621223,846.696533 94.499207,853.704834 102.773224,860.129517 
	C121.068108,874.335327 139.403946,888.526672 158.302933,901.904724 
	C174.462296,913.343567 191.313690,923.824768 208.071472,934.392578 
	C226.058853,945.735901 244.112991,956.996094 262.471191,967.722290 
	C281.517456,978.850464 300.735260,989.732300 320.293030,999.925659 
	C343.370117,1011.953186 366.773041,1023.376038 390.253693,1034.603027 
	C415.702728,1046.771362 441.689545,1057.744141 468.924133,1065.315918 
	C478.283844,1067.917969 487.953552,1069.877808 497.609955,1070.830566 
	C512.541992,1072.303711 526.611145,1067.477051 540.675354,1063.111450 
	C572.987183,1053.081909 603.564819,1038.857788 633.997742,1024.366821 
	C651.327332,1016.115173 668.337402,1007.135071 685.140137,997.847473 
	C710.442993,983.861389 735.636841,969.653931 760.503906,954.911377 
	C782.141479,942.083496 803.470642,928.703552 824.540771,914.961365 
	C839.488403,905.212463 853.806641,894.494873 868.354370,884.137329 
	C890.058411,868.684692 910.574524,851.899109 929.116577,832.628967 
	C940.936340,820.345032 947.579224,805.653198 950.749451,789.594116 
	C955.291443,766.586243 958.816956,743.343689 961.824524,720.078308 
	C964.013306,703.146790 964.828613,686.027222 965.947876,668.971252 
	C966.867310,654.959473 967.469849,640.922729 967.961548,626.888245 
	C968.466553,612.476135 968.938843,598.053101 968.927124,583.635254 
	C968.914307,567.883667 968.331482,552.132507 967.994629,536.381165 
	C967.664856,520.960999 967.387512,505.539337 966.973938,490.121368 
	C966.801331,483.687531 966.420166,477.255859 965.988037,470.833008 
	C964.697144,451.643646 963.425293,432.452209 961.963684,413.275482 
	C961.153198,402.640106 960.590698,391.929688 958.827759,381.435974 
	C956.031128,364.788544 952.179382,348.321411 949.037903,331.728058 
	C945.526672,313.181793 934.677490,299.022369 921.684570,286.393036 
	C912.760742,277.718872 903.179993,269.640625 893.344360,262.002350 
	C877.060547,249.356567 860.683655,236.772827 843.705688,225.093643 
	C823.030823,210.871292 801.693604,197.611877 780.028992,183.510269 
z"/>
<path fill="#000000" opacity="1.000000" stroke="none" 
	d="
M780.335938,183.723114 
	C801.693604,197.611877 823.030823,210.871292 843.705688,225.093643 
	C860.683655,236.772827 877.060547,249.356567 893.344360,262.002350 
	C903.179993,269.640625 912.760742,277.718872 921.684570,286.393036 
	C934.677490,299.022369 945.526672,313.181793 949.037903,331.728058 
	C952.179382,348.321411 956.031128,364.788544 958.827759,381.435974 
	C960.590698,391.929688 961.153198,402.640106 961.963684,413.275482 
	C963.425293,432.452209 964.697144,451.643646 965.988037,470.833008 
	C966.420166,477.255859 966.801331,483.687531 966.973938,490.121368 
	C967.387512,505.539337 967.664856,520.960999 967.994629,536.381165 
	C968.331482,552.132507 968.914307,567.883667 968.927124,583.635254 
	C968.938843,598.053101 968.466553,612.476135 967.961548,626.888245 
	C967.469849,640.922729 966.867310,654.959473 965.947876,668.971252 
	C964.828613,686.027222 964.013306,703.146790 961.824524,720.078308 
	C958.816956,743.343689 955.291443,766.586243 950.749451,789.594116 
	C947.579224,805.653198 940.936340,820.345032 929.116577,832.628967 
	C910.574524,851.899109 890.058411,868.684692 868.354370,884.137329 
	C853.806641,894.494873 839.488403,905.212463 824.540771,914.961365 
	C803.470642,928.703552 782.141479,942.083496 760.503906,954.911377 
	C735.636841,969.653931 710.442993,983.861389 685.140137,997.847473 
	C668.337402,1007.135071 651.327332,1016.115173 633.997742,1024.366821 
	C603.564819,1038.857788 572.987183,1053.081909 540.675354,1063.111450 
	C526.611145,1067.477051 512.541992,1072.303711 497.609955,1070.830566 
	C487.953552,1069.877808 478.283844,1067.917969 468.924133,1065.315918 
	C441.689545,1057.744141 415.702728,1046.771362 390.253693,1034.603027 
	C366.773041,1023.376038 343.370117,1011.953186 320.293030,999.925659 
	C300.735260,989.732300 281.517456,978.850464 262.471191,967.722290 
	C244.112991,956.996094 226.058853,945.735901 208.071472,934.392578 
	C191.313690,923.824768 174.462296,913.343567 158.302933,901.904724 
	C139.403946,888.526672 121.068108,874.335327 102.773224,860.129517 
	C94.499207,853.704834 86.621223,846.696533 79.078850,839.418945 
	C64.283485,825.142883 54.331928,808.144348 50.922844,787.527954 
	C48.615929,773.577087 45.327347,759.784485 43.169151,745.814270 
	C41.544037,735.294800 40.991371,724.608032 40.005436,713.991699 
	C38.655643,699.457397 37.275318,684.925354 36.055004,670.380005 
	C35.517296,663.970886 35.227741,657.534912 35.024700,651.104858 
	C34.611351,638.014648 34.271458,624.921387 34.013885,611.827148 
	C33.625191,592.067261 33.087086,572.305725 33.072598,552.544495 
	C33.059582,534.792847 33.514030,517.036255 34.048717,499.290405 
	C34.476307,485.098907 35.119862,470.906250 36.057083,456.739868 
	C37.153328,440.169891 37.941555,423.528320 40.179096,407.097015 
	C43.516125,382.591675 47.407688,358.124603 52.226238,333.872314 
	C55.124649,319.284271 61.692074,306.157227 72.315010,294.934479 
	C86.361794,280.094604 101.475052,266.613373 117.954231,254.645645 
	C138.865479,239.459229 159.596832,223.979767 181.088577,209.650803 
	C202.394882,195.445465 224.361038,182.195328 246.384445,169.109665 
	C268.843506,155.765167 291.564911,142.839737 314.471436,130.277893 
	C332.744843,120.256844 351.147125,110.356415 370.073639,101.669212 
	C394.516968,90.449776 419.564331,80.550392 444.303070,69.969162 
	C459.611816,63.421307 475.513031,58.707119 491.898651,56.284847 
	C503.324615,54.595749 514.843994,56.395432 526.073975,59.501667 
	C548.605103,65.733795 570.520142,73.678246 591.746338,83.418846 
	C614.640076,93.924629 637.718079,104.127579 660.033875,115.769386 
	C688.242798,130.485458 715.816345,146.426682 743.555786,162.031769 
	C755.850281,168.948181 767.879395,176.336304 780.335938,183.723114 
M799.638916,207.937042 
	C798.860962,207.316895 798.141724,206.599182 797.296570,206.090836 
	C774.485718,192.370651 751.834717,178.373032 728.790100,165.056702 
	C707.266113,152.619110 685.527344,140.516098 663.500244,128.997955 
	C644.626160,119.128502 625.448303,109.755981 605.968079,101.152664 
	C585.828857,92.258331 565.294495,84.206680 544.681091,76.456444 
	C531.131653,71.362129 517.077576,67.525078 502.458282,67.068092 
	C489.732727,66.670303 477.597870,70.176712 465.544800,73.802124 
	C432.764954,83.661896 401.710571,97.810623 371.015961,112.668533 
	C348.482819,123.575821 326.370697,135.390289 304.375916,147.360825 
	C285.804657,157.468140 267.613007,168.280411 249.357620,178.958923 
	C215.101318,198.997177 181.849854,220.573837 149.570755,243.688934 
	C124.986237,261.293945 101.270370,279.861450 80.606506,302.030579 
	C76.873764,306.035248 73.647957,310.690460 70.996315,315.491669 
	C62.705921,330.502563 59.353374,347.060913 56.989746,363.818359 
	C54.185467,383.699890 51.378696,403.588440 49.100441,423.534210 
	C47.589535,436.761902 46.764294,450.082672 46.064358,463.384552 
	C45.152245,480.718811 44.124931,498.075195 44.111523,515.422791 
	C44.082478,553.003296 44.625519,590.584717 45.036350,628.164612 
	C45.113857,635.254639 45.592823,642.343567 46.008999,649.425781 
	C46.965698,665.706421 47.952477,681.985718 49.017616,698.259521 
	C49.587074,706.960022 49.967030,715.697632 51.099567,724.330994 
	C53.135101,739.847839 55.149384,755.402039 58.172749,770.743469 
	C60.449913,782.298401 63.618908,793.786804 67.607002,804.867126 
	C72.352791,818.052490 82.177780,827.853577 92.495110,836.953308 
	C104.528328,847.566467 116.171402,858.750122 129.035721,868.263794 
	C150.254593,883.955994 171.950729,899.075012 194.120819,913.390015 
	C220.180786,930.216736 246.741882,946.301331 273.496613,962.007629 
	C295.776611,975.086975 318.452393,987.531921 341.326508,999.546448 
	C358.596771,1008.617615 376.238403,1017.065613 394.112396,1024.881592 
	C414.910736,1033.976440 435.907349,1042.739258 457.275421,1050.363892 
	C469.872620,1054.858887 483.213989,1057.975220 496.481842,1059.687500 
	C510.042969,1061.437500 523.327454,1057.197998 536.351196,1053.276611 
	C568.284302,1043.661621 598.661194,1030.118774 628.530396,1015.575928 
	C654.871277,1002.751038 680.701843,988.836853 706.415955,974.778442 
	C728.065369,962.942322 749.605103,950.815979 770.501465,937.714600 
	C795.944397,921.762634 820.780823,904.829895 845.662659,888.000671 
	C872.893250,869.583008 898.639099,849.292358 921.160889,825.207031 
	C924.900879,821.207397 928.229004,816.645752 930.923340,811.878113 
	C939.208008,797.218445 942.112305,780.830811 944.915100,764.529175 
	C947.016907,752.304382 948.446533,739.959229 949.988770,727.644287 
	C951.452087,715.959534 952.828552,704.259399 953.950806,692.537964 
	C954.858948,683.053101 955.512634,673.535156 955.959106,664.016846 
	C956.765503,646.826355 957.871704,629.625244 957.888428,612.427551 
	C957.923584,576.333679 957.380920,540.238708 956.965393,504.145416 
	C956.866394,495.543976 956.454224,486.940857 955.977112,478.350128 
	C955.064636,461.917908 954.207520,445.478088 952.935791,429.071747 
	C951.935303,416.164825 950.805420,403.235352 948.906006,390.438660 
	C946.354736,373.249786 943.333252,356.113373 939.898682,339.078400 
	C937.130310,325.347534 931.696411,312.512024 921.721191,302.400665 
	C911.618286,292.159698 901.296265,282.015747 890.169861,272.932220 
	C874.405762,260.062500 858.016235,247.927231 841.517212,235.999405 
	C828.087097,226.290268 814.103271,217.346939 799.638916,207.937042 
z"/>
<path fill="#EA9937" opacity="1.000000" stroke="none" 
	d="
M800.001953,208.000519 
	C814.103271,217.346939 828.087097,226.290268 841.517212,235.999405 
	C858.016235,247.927231 874.405762,260.062500 890.169861,272.932220 
	C901.296265,282.015747 911.618286,292.159698 921.721191,302.400665 
	C931.696411,312.512024 937.130310,325.347534 939.898682,339.078400 
	C943.333252,356.113373 946.354736,373.249786 948.906006,390.438660 
	C950.805420,403.235352 951.935303,416.164825 952.935791,429.071747 
	C954.207520,445.478088 955.064636,461.917908 955.977112,478.350128 
	C956.454224,486.940857 956.866394,495.543976 956.965393,504.145416 
	C957.380920,540.238708 957.923584,576.333679 957.888428,612.427551 
	C957.871704,629.625244 956.765503,646.826355 955.959106,664.016846 
	C955.512634,673.535156 954.858948,683.053101 953.950806,692.537964 
	C952.828552,704.259399 951.452087,715.959534 949.988770,727.644287 
	C948.446533,739.959229 947.016907,752.304382 944.915100,764.529175 
	C942.112305,780.830811 939.208008,797.218445 930.923340,811.878113 
	C928.229004,816.645752 924.900879,821.207397 921.160889,825.207031 
	C898.639099,849.292358 872.893250,869.583008 845.662659,888.000671 
	C820.780823,904.829895 795.944397,921.762634 770.501465,937.714600 
	C749.605103,950.815979 728.065369,962.942322 706.415955,974.778442 
	C680.701843,988.836853 654.871277,1002.751038 628.530396,1015.575928 
	C598.661194,1030.118774 568.284302,1043.661621 536.351196,1053.276611 
	C523.327454,1057.197998 510.042969,1061.437500 496.481842,1059.687500 
	C483.213989,1057.975220 469.872620,1054.858887 457.275421,1050.363892 
	C435.907349,1042.739258 414.910736,1033.976440 394.112396,1024.881592 
	C376.238403,1017.065613 358.596771,1008.617615 341.326508,999.546448 
	C318.452393,987.531921 295.776611,975.086975 273.496613,962.007629 
	C246.741882,946.301331 220.180786,930.216736 194.120819,913.390015 
	C171.950729,899.075012 150.254593,883.955994 129.035721,868.263794 
	C116.171402,858.750122 104.528328,847.566467 92.495110,836.953308 
	C82.177780,827.853577 72.352791,818.052490 67.607002,804.867126 
	C63.618908,793.786804 60.449913,782.298401 58.172749,770.743469 
	C55.149384,755.402039 53.135101,739.847839 51.099567,724.330994 
	C49.967030,715.697632 49.587074,706.960022 49.017616,698.259521 
	C47.952477,681.985718 46.965698,665.706421 46.008999,649.425781 
	C45.592823,642.343567 45.113857,635.254639 45.036350,628.164612 
	C44.625519,590.584717 44.082478,553.003296 44.111523,515.422791 
	C44.124931,498.075195 45.152245,480.718811 46.064358,463.384552 
	C46.764294,450.082672 47.589535,436.761902 49.100441,423.534210 
	C51.378696,403.588440 54.185467,383.699890 56.989746,363.818359 
	C59.353374,347.060913 62.705921,330.502563 70.996315,315.491669 
	C73.647957,310.690460 76.873764,306.035248 80.606506,302.030579 
	C101.270370,279.861450 124.986237,261.293945 149.570755,243.688934 
	C181.849854,220.573837 215.101318,198.997177 249.357620,178.958923 
	C267.613007,168.280411 285.804657,157.468140 304.375916,147.360825 
	C326.370697,135.390289 348.482819,123.575821 371.015961,112.668533 
	C401.710571,97.810623 432.764954,83.661896 465.544800,73.802124 
	C477.597870,70.176712 489.732727,66.670303 502.458282,67.068092 
	C517.077576,67.525078 531.131653,71.362129 544.681091,76.456444 
	C565.294495,84.206680 585.828857,92.258331 605.968079,101.152664 
	C625.448303,109.755981 644.626160,119.128502 663.500244,128.997955 
	C685.527344,140.516098 707.266113,152.619110 728.790100,165.056702 
	C751.834717,178.373032 774.485718,192.370651 797.296570,206.090836 
	C798.141724,206.599182 798.860962,207.316895 800.001953,208.000519 
M487.532471,306.974091 
	C464.400452,306.042725 441.275208,304.814178 418.133972,304.285278 
	C402.912567,303.937378 391.619781,313.317413 388.752899,328.255188 
	C385.993469,342.633331 383.243958,357.068054 381.661926,371.605408 
	C378.924805,396.756989 376.707703,421.981598 375.034302,447.226044 
	C374.105957,461.230469 383.176453,472.637512 396.514313,475.984436 
	C456.174438,490.955414 516.751038,499.389526 578.248169,501.009949 
	C595.870605,501.474304 606.805115,492.395996 609.957275,475.028320 
	C612.899719,458.815826 616.176147,442.646088 618.490967,426.341888 
	C621.743286,403.434052 624.685913,380.462067 626.905029,357.434998 
	C628.334106,342.606232 619.551758,330.864716 605.445312,327.188446 
	C567.025391,317.175903 528.001343,310.560760 487.532471,306.974091 
M705.165955,832.484070 
	C705.165955,750.078186 705.165955,667.672302 705.165955,584.872925 
	C702.825867,584.872925 701.186096,584.872925 699.546265,584.872925 
	C682.717102,584.872925 665.886108,585.007385 649.060242,584.773682 
	C645.099243,584.718689 643.287659,585.835022 641.914551,589.670776 
	C632.552002,615.825745 622.922791,641.885498 613.295654,667.944946 
	C612.724670,669.490540 611.427124,670.767700 610.467712,672.169800 
	C609.356201,670.715881 607.806152,669.424377 607.198669,667.783875 
	C597.494324,641.575867 587.849976,615.345093 578.378052,589.052368 
	C577.237610,585.886780 575.852722,584.747437 572.398743,584.782104 
	C553.405396,584.973022 534.409119,584.866150 515.413879,584.888184 
	C513.991211,584.889832 512.568726,585.100220 511.272827,585.203430 
	C511.272827,671.917786 511.272827,758.143311 511.272827,844.451660 
	C527.351501,844.451660 543.077637,844.451660 558.891296,844.451660 
	C559.013428,843.108154 559.191406,842.123474 559.179565,841.140930 
	C558.540588,787.836487 557.905762,734.531921 557.207947,681.228149 
	C557.116394,674.233826 556.625244,667.245117 556.485474,660.250549 
	C556.459961,658.971313 557.239746,657.675964 557.647766,656.388000 
	C558.707520,657.426147 559.927429,658.350098 560.775208,659.539307 
	C561.425049,660.450867 561.598755,661.699524 561.995178,662.794373 
	C576.663574,703.304565 591.331848,743.814880 606.008911,784.321960 
	C606.528503,785.756042 607.137451,787.157837 608.117493,789.605225 
	C609.397705,786.172302 610.224792,784.007935 611.014099,781.829956 
	C625.637207,741.479431 640.232788,701.118835 654.956360,660.805054 
	C655.572388,659.118225 657.374023,657.864441 658.623352,656.408997 
	C658.963989,658.225159 659.658936,660.054565 659.591248,661.855408 
	C658.783813,683.331360 657.332520,704.797058 657.088135,726.277283 
	C656.652222,764.596069 656.923157,802.922974 656.925964,841.246460 
	C656.926025,842.337585 657.236572,843.428711 657.407715,844.555176 
	C673.331116,844.555176 688.926147,844.555176 705.165955,844.555176 
	C705.165955,840.699402 705.165955,837.087341 705.165955,832.484070 
M317.500183,584.872253 
	C310.733551,584.872253 303.966919,584.872253 297.159729,584.872253 
	C297.159729,671.821228 297.159729,758.058105 297.159729,844.301636 
	C297.927490,844.518738 298.392151,844.767151 298.855408,844.764526 
	C330.011841,844.587646 361.213470,845.376892 392.313202,843.948853 
	C432.417297,842.107361 459.881744,821.341003 473.082947,783.337830 
	C487.139954,742.871094 486.764557,701.507629 477.458130,660.151489 
	C472.926147,640.012085 464.027039,621.764893 448.493195,607.544434 
	C430.995758,591.526367 409.573639,585.550964 386.492249,585.066223 
	C363.836853,584.590393 341.164825,584.904724 317.500183,584.872253 
M595.733521,521.275574 
	C600.378235,519.088013 605.217651,517.217346 609.565247,514.546204 
	C611.152039,513.571289 612.854187,510.126892 612.267029,508.795593 
	C610.818726,505.511658 607.974670,506.846130 605.583069,508.464111 
	C597.294922,514.071167 588.113342,516.470398 578.155334,515.964050 
	C567.511108,515.422913 556.872620,514.676819 546.222290,514.445557 
	C544.518433,514.408630 542.766235,516.598389 541.036377,517.758728 
	C542.600037,519.125488 544.009155,521.382446 545.757385,521.685852 
	C550.322449,522.478210 555.040955,522.715088 559.689026,522.635193 
	C571.452393,522.433044 583.210754,521.935425 595.733521,521.275574 
M474.201477,291.088348 
	C486.282288,292.157196 498.354126,293.369598 510.454315,294.129700 
	C512.136658,294.235352 513.959045,292.112000 515.716614,291.020538 
	C514.176758,289.653992 512.729675,287.225922 511.083038,287.082092 
	C490.399200,285.275421 469.692566,283.703247 448.970856,282.403870 
	C447.142120,282.289215 443.788513,284.265442 443.535706,285.693970 
	C442.938385,289.069183 445.961182,289.791870 448.857239,289.917389 
	C456.991943,290.269928 465.124634,290.668732 474.201477,291.088348 
M421.826019,283.589264 
	C422.087463,285.423004 422.075531,287.379364 422.804230,289.003479 
	C422.984497,289.405182 425.937073,289.191864 426.933014,288.401550 
	C427.742554,287.759155 428.074951,284.866760 427.676697,284.642029 
	C426.113647,283.760040 424.177521,283.539154 421.826019,283.589264 
M626.236816,491.446014 
	C624.503784,491.345764 622.577942,490.767731 621.122375,491.355133 
	C620.436707,491.631805 620.107971,494.394348 620.639282,495.567993 
	C621.048584,496.472168 623.918945,497.369354 624.196960,497.032654 
	C625.346985,495.640015 625.927063,493.776733 626.236816,491.446014 
z"/>
<path fill="#1F1E1E" opacity="1.000000" stroke="none" 
	d="
M487.995544,306.988708 
	C528.001343,310.560760 567.025391,317.175903 605.445312,327.188446 
	C619.551758,330.864716 628.334106,342.606232 626.905029,357.434998 
	C624.685913,380.462067 621.743286,403.434052 618.490967,426.341888 
	C616.176147,442.646088 612.899719,458.815826 609.957275,475.028320 
	C606.805115,492.395996 595.870605,501.474304 578.248169,501.009949 
	C516.751038,499.389526 456.174438,490.955414 396.514313,475.984436 
	C383.176453,472.637512 374.105957,461.230469 375.034302,447.226044 
	C376.707703,421.981598 378.924805,396.756989 381.661926,371.605408 
	C383.243958,357.068054 385.993469,342.633331 388.752899,328.255188 
	C391.619781,313.317413 402.912567,303.937378 418.133972,304.285278 
	C441.275208,304.814178 464.400452,306.042725 487.995544,306.988708 
M577.341248,365.876831 
	C553.497498,380.715515 528.224915,392.508728 501.699738,401.716949 
	C495.421326,403.896515 490.301575,403.063568 484.972015,399.004120 
	C460.319031,380.226227 438.193085,358.905762 418.910675,334.639191 
	C417.225250,332.518066 415.299835,329.925842 412.369568,332.157959 
	C409.170990,334.594513 411.334930,337.129883 413.153809,339.417389 
	C433.178070,364.601074 456.141754,386.742981 481.911560,405.997009 
	C487.950256,410.508850 494.468323,411.899689 501.681458,409.503876 
	C534.906433,398.468079 565.995605,383.113586 594.930359,363.395599 
	C597.161621,361.875092 599.239929,360.102844 597.436340,357.332306 
	C595.438599,354.263458 592.834290,355.739929 590.490051,357.273682 
	C586.309448,360.008972 582.127441,362.742157 577.341248,365.876831 
z"/>
<path fill="#1F1E1E" opacity="1.000000" stroke="none" 
	d="
M705.165955,832.979736 
	C705.165955,837.087341 705.165955,840.699402 705.165955,844.555176 
	C688.926147,844.555176 673.331116,844.555176 657.407715,844.555176 
	C657.236572,843.428711 656.926025,842.337585 656.925964,841.246460 
	C656.923157,802.922974 656.652222,764.596069 657.088135,726.277283 
	C657.332520,704.797058 658.783813,683.331360 659.591248,661.855408 
	C659.658936,660.054565 658.963989,658.225159 658.623291,656.408997 
	C657.374023,657.864441 655.572388,659.118225 654.956360,660.805054 
	C640.232788,701.118835 625.637207,741.479431 611.014099,781.829956 
	C610.224792,784.007935 609.397705,786.172302 608.117493,789.605225 
	C607.137451,787.157837 606.528503,785.756042 606.008911,784.321960 
	C591.331848,743.814880 576.663574,703.304565 561.995178,662.794373 
	C561.598755,661.699524 561.425049,660.450867 560.775208,659.539307 
	C559.927429,658.350098 558.707520,657.426147 557.647827,656.388000 
	C557.239746,657.675964 556.459961,658.971313 556.485474,660.250549 
	C556.625244,667.245117 557.116394,674.233826 557.207947,681.228149 
	C557.905762,734.531921 558.540588,787.836487 559.179565,841.140930 
	C559.191406,842.123474 559.013428,843.108154 558.891296,844.451660 
	C543.077637,844.451660 527.351501,844.451660 511.272827,844.451660 
	C511.272827,758.143311 511.272827,671.917786 511.272827,585.203430 
	C512.568726,585.100220 513.991211,584.889832 515.413879,584.888184 
	C534.409119,584.866150 553.405396,584.973022 572.398743,584.782104 
	C575.852722,584.747437 577.237610,585.886780 578.378052,589.052368 
	C587.849976,615.345093 597.494324,641.575867 607.198669,667.783875 
	C607.806152,669.424377 609.356201,670.715881 610.467712,672.169800 
	C611.427124,670.767700 612.724670,669.490540 613.295654,667.944946 
	C622.922791,641.885498 632.552002,615.825745 641.914551,589.670776 
	C643.287659,585.835022 645.099243,584.718689 649.060242,584.773682 
	C665.886108,585.007385 682.717102,584.872925 699.546265,584.872925 
	C701.186096,584.872925 702.825867,584.872925 705.165955,584.872925 
	C705.165955,667.672302 705.165955,750.078186 705.165955,832.979736 
z"/>
<path fill="#1F1E1E" opacity="1.000000" stroke="none" 
	d="
M318.000153,584.872253 
	C341.164825,584.904724 363.836853,584.590393 386.492249,585.066223 
	C409.573639,585.550964 430.995758,591.526367 448.493195,607.544434 
	C464.027039,621.764893 472.926147,640.012085 477.458130,660.151489 
	C486.764557,701.507629 487.139954,742.871094 473.082947,783.337830 
	C459.881744,821.341003 432.417297,842.107361 392.313202,843.948853 
	C361.213470,845.376892 330.011841,844.587646 298.855408,844.764526 
	C298.392151,844.767151 297.927490,844.518738 297.159729,844.301636 
	C297.159729,758.058105 297.159729,671.821228 297.159729,584.872253 
	C303.966919,584.872253 310.733551,584.872253 318.000153,584.872253 
M424.783661,744.219849 
	C424.800873,725.234558 425.085266,706.243958 424.703979,687.266663 
	C424.551239,679.666626 423.572021,671.947266 421.848633,664.543091 
	C418.286835,649.240479 410.838562,636.580933 394.770630,631.419861 
	C380.831665,626.942627 366.490021,629.515808 352.346069,628.857178 
	C352.346069,686.575562 352.346069,743.575256 352.346069,800.610046 
	C362.576599,800.610046 372.436340,801.272705 382.176147,800.473572 
	C403.144623,798.753052 415.351105,788.672302 420.791412,768.724792 
	C422.876892,761.078125 423.476379,753.026123 424.783661,744.219849 
z"/>
<path fill="#24221F" opacity="1.000000" stroke="none" 
	d="
M595.352295,521.415894 
	C583.210754,521.935425 571.452393,522.433044 559.689026,522.635193 
	C555.040955,522.715088 550.322449,522.478210 545.757385,521.685852 
	C544.009155,521.382446 542.600037,519.125488 541.036377,517.758728 
	C542.766235,516.598389 544.518433,514.408630 546.222290,514.445557 
	C556.872620,514.676819 567.511108,515.422913 578.155334,515.964050 
	C588.113342,516.470398 597.294922,514.071167 605.583069,508.464111 
	C607.974670,506.846130 610.818726,505.511658 612.267029,508.795593 
	C612.854187,510.126892 611.152039,513.571289 609.565247,514.546204 
	C605.217651,517.217346 600.378235,519.088013 595.352295,521.415894 
z"/>
<path fill="#25221F" opacity="1.000000" stroke="none" 
	d="
M473.729797,291.068817 
	C465.124634,290.668732 456.991943,290.269928 448.857239,289.917389 
	C445.961182,289.791870 442.938385,289.069183 443.535706,285.693970 
	C443.788513,284.265442 447.142120,282.289215 448.970856,282.403870 
	C469.692566,283.703247 490.399200,285.275421 511.083038,287.082092 
	C512.729675,287.225922 514.176758,289.653992 515.716614,291.020538 
	C513.959045,292.112000 512.136658,294.235352 510.454315,294.129700 
	C498.354126,293.369598 486.282288,292.157196 473.729797,291.068817 
z"/>
<path fill="#2D2720" opacity="1.000000" stroke="none" 
	d="
M422.102997,283.330994 
	C424.177521,283.539154 426.113647,283.760040 427.676697,284.642029 
	C428.074951,284.866760 427.742554,287.759155 426.933014,288.401550 
	C425.937073,289.191864 422.984497,289.405182 422.804230,289.003479 
	C422.075531,287.379364 422.087463,285.423004 422.102997,283.330994 
z"/>
<path fill="#26231F" opacity="1.000000" stroke="none" 
	d="
M626.476685,491.766174 
	C625.927063,493.776733 625.346985,495.640015 624.196960,497.032654 
	C623.918945,497.369354 621.048584,496.472168 620.639282,495.567993 
	C620.107971,494.394348 620.436707,491.631805 621.122375,491.355133 
	C622.577942,490.767731 624.503784,491.345764 626.476685,491.766174 
z"/>
<path fill="#E39536" opacity="1.000000" stroke="none" 
	d="
M577.643616,365.676514 
	C582.127441,362.742157 586.309448,360.008972 590.490051,357.273682 
	C592.834290,355.739929 595.438599,354.263458 597.436340,357.332306 
	C599.239929,360.102844 597.161621,361.875092 594.930359,363.395599 
	C565.995605,383.113586 534.906433,398.468079 501.681458,409.503876 
	C494.468323,411.899689 487.950256,410.508850 481.911560,405.997009 
	C456.141754,386.742981 433.178070,364.601074 413.153809,339.417389 
	C411.334930,337.129883 409.170990,334.594513 412.369568,332.157959 
	C415.299835,329.925842 417.225250,332.518066 418.910675,334.639191 
	C438.193085,358.905762 460.319031,380.226227 484.972015,399.004120 
	C490.301575,403.063568 495.421326,403.896515 501.699738,401.716949 
	C528.224915,392.508728 553.497498,380.715515 577.643616,365.676514 
z"/>
<path fill="#E99937" opacity="1.000000" stroke="none" 
	d="
M424.768311,744.689331 
	C423.476379,753.026123 422.876892,761.078125 420.791412,768.724792 
	C415.351105,788.672302 403.144623,798.753052 382.176147,800.473572 
	C372.436340,801.272705 362.576599,800.610046 352.346069,800.610046 
	C352.346069,743.575256 352.346069,686.575562 352.346069,628.857178 
	C366.490021,629.515808 380.831665,626.942627 394.770630,631.419861 
	C410.838562,636.580933 418.286835,649.240479 421.848633,664.543091 
	C423.572021,671.947266 424.551239,679.666626 424.703979,687.266663 
	C425.085266,706.243958 424.800873,725.234558 424.768311,744.689331 
z"/>
</svg>